<?xml version="1.0" encoding="utf-8"?>
<!-- Generator: Adobe Illustrator 23.0.3, SVG Export Plug-In . SVG Version: 6.00 Build 0)  -->
<svg version="1.1" id="Layer_1" xmlns="http://www.w3.org/2000/svg" xmlns:xlink="http://www.w3.org/1999/xlink" x="0px" y="0px"
	 viewBox="0 0 28.2 20.2" style="enable-background:new 0 0 28.2 20.2;" xml:space="preserve">
<path d="M2.2,4h24c1.1,0,2-0.9,2-2s-0.9-2-2-2h-24c-1.1,0-2,0.9-2,2S1.1,4,2.2,4z M26.2,8h-24c-1.1,0-2,0.9-2,2s0.9,2,2,2h24
	c1.1,0,2-0.9,2-2S27.3,8,26.2,8z M26.2,16h-24c-1.1,0-2,0.9-2,2s0.9,2,2,2h24c1.1,0,2-0.9,2-2S27.3,16,26.2,16z"/>
</svg>
